# xmcd CD database file
#
# Track frame offsets:
#	150
#	27802
#	51517
#	92947
#	110647
#	133962
#	171727
#
# Disc length: 2725 seconds
#
# Revision: 0
# Processed by: cddbd v1.5.1PL0 Copyright (c) Steve Scherf et al.
# Submitted via: CDex 1.51
#
DISCID=6b0aa307
DTITLE=Sonny Stitt - I Remember Bird
DYEAR=1900
DGENRE=Jazz
TTITLE0=Waltz For Diane
TTITLE1=Body and Soul
TTITLE2=Jeepers Creepers
TTITLE3=Streamlined Stanley
TTITLE4=I remember Bird
TTITLE5=Watch What Happens
TTITLE6=Yes Jesus Loves Me
EXTD=
EXTT0=
EXTT1=
EXTT2=
EXTT3=
EXTT4=
EXTT5=
EXTT6=
PLAYORDER=
